<svg width="123" height="34" viewBox="0 0 123 34" fill="none" xmlns="http://www.w3.org/2000/svg">
<g clip-path="url(#clip0)">
<path d="M9.44052 18.326C9.74506 18.326 10.0496 18.326 10.3541 18.326C10.5465 18.326 10.7549 18.2924 10.9472 18.2588C11.6685 18.1412 12.3898 17.99 13.079 17.6876C13.672 17.4188 14.217 17.0828 14.6818 16.5956C15.2589 15.9908 15.5794 15.2516 15.7077 14.3947C15.8199 13.6723 15.7397 12.9499 15.6115 12.2443C15.5313 11.8243 15.4191 11.421 15.2749 11.0178C14.9062 9.993 14.2811 9.20338 13.3675 8.66576C12.9988 8.44735 12.6142 8.24575 12.2455 8.04414C12.0051 7.90974 11.7646 7.77534 11.5563 7.59053C11.1235 7.22092 10.8991 6.75051 10.8831 6.17929C10.8671 5.91048 10.8671 5.62487 10.9472 5.35606C11.1395 4.63364 11.5723 4.16323 12.2455 3.97842C12.55 3.89442 12.8546 3.87762 13.1752 3.89442C14.0247 3.94482 14.762 4.29763 15.4672 4.75125C16.1084 5.15446 16.6854 5.65847 17.1823 6.24649C17.3906 6.4985 17.583 6.76731 17.7753 7.05291C18.4806 8.11134 19.0576 9.25378 19.4423 10.4802C19.6507 11.1018 19.7949 11.7571 19.8911 12.4123C19.9712 12.9499 20.0193 13.4875 19.9873 14.0419C19.9231 15.8564 19.3782 17.486 18.2882 18.9141C17.5189 19.9221 16.5732 20.6949 15.4993 21.2829C14.4574 21.8541 13.3675 22.2238 12.2134 22.4422C11.5082 22.5766 10.8029 22.6774 10.0817 22.6942C9.8252 22.6942 9.55272 22.7278 9.29627 22.7278C8.01399 22.6942 6.73171 22.5766 5.49752 22.207C4.40758 21.8878 3.41382 21.4005 2.53225 20.6445C1.57054 19.8045 0.913377 18.8133 0.496637 17.6204C0.25621 16.9316 0.111954 16.2428 0.0478399 15.5204C-0.016274 14.9323 -0.016274 14.3275 0.0157829 13.7395C0.0478398 13.1347 0.144011 12.5467 0.25621 11.9587C0.528694 10.5978 0.977491 9.30418 1.6026 8.07774C2.1636 6.96891 2.85282 5.96088 3.73439 5.10406C4.10304 4.75125 4.50375 4.43204 4.93652 4.18003C5.30518 3.97842 5.70589 3.84402 6.12263 3.86082C7.26065 3.91122 7.90179 4.86885 7.91782 5.74248C7.91782 6.21289 7.80562 6.6329 7.58122 7.03611C7.42093 7.32172 7.22859 7.57373 7.02022 7.80894C6.1066 8.76656 5.38532 9.8922 4.84035 11.1354C4.53581 11.8411 4.29538 12.5635 4.15113 13.3363C4.05496 13.9075 4.0229 14.4787 4.08701 15.0499C4.21524 16.2092 4.77624 17.0996 5.78603 17.654C6.25086 17.906 6.74774 18.0572 7.26065 18.158C7.6293 18.2252 7.99796 18.2924 8.38264 18.326C8.68718 18.3596 8.99172 18.3428 9.28024 18.3428C9.32832 18.3428 9.39244 18.3428 9.44052 18.326Z" fill="#111111"/>
<path d="M5.65805 26.3228C5.69011 25.4492 6.09082 24.7436 6.86018 24.2732C7.24487 24.038 7.64558 23.87 8.07835 23.8028C8.99197 23.6684 9.82545 23.8532 10.4826 24.6092C10.9955 25.1804 11.252 25.886 11.2039 26.6589C11.1718 27.4653 10.8352 28.1205 10.1941 28.5909C9.64914 28.9941 9.04006 29.2125 8.39892 29.1957C7.56544 29.1957 6.86018 28.8429 6.31522 28.1709C5.89848 27.6669 5.69011 27.0621 5.65805 26.3228Z" fill="#111111"/>
</g>
<path d="M30.041 8.385C30.041 6.305 31.497 5.317 32.914 5.317C34.344 5.317 35.8 6.305 35.8 8.385C35.8 10.465 34.344 11.453 32.914 11.453C31.497 11.453 30.041 10.465 30.041 8.385ZM28.182 8.398C28.182 11.362 30.418 13.195 32.914 13.195C35.423 13.195 37.659 11.362 37.659 8.398C37.659 5.421 35.423 3.588 32.914 3.588C30.418 3.588 28.182 5.421 28.182 8.398ZM40.8133 13V9.256C40.8133 8.554 41.2553 7.995 42.0093 7.995C42.7893 7.995 43.1403 8.515 43.1403 9.204V13H44.8563V9.256C44.8563 8.567 45.2983 7.995 46.0393 7.995C46.8323 7.995 47.1703 8.515 47.1703 9.204V13H48.8473V8.853C48.8473 7.137 47.7163 6.422 46.5333 6.422C45.6883 6.422 45.0123 6.708 44.5053 7.488C44.1803 6.799 43.4783 6.422 42.6073 6.422C41.9053 6.422 41.0863 6.76 40.7353 7.384V6.604H39.0843V13H40.8133ZM52.328 9.321C52.328 8.58 52.77 7.995 53.524 7.995C54.356 7.995 54.707 8.554 54.707 9.269V13H56.436V8.97C56.436 7.566 55.708 6.435 54.122 6.435C53.433 6.435 52.666 6.734 52.276 7.397V6.604H50.599V13H52.328V9.321ZM59.9198 13V6.604H58.1908V13H59.9198ZM57.9828 4.511C57.9828 5.083 58.4638 5.564 59.0488 5.564C59.6468 5.564 60.1148 5.083 60.1148 4.511C60.1148 3.913 59.6468 3.432 59.0488 3.432C58.4638 3.432 57.9828 3.913 57.9828 4.511ZM64.6439 8.008C65.5019 8.008 65.9049 8.554 66.0609 9.087L67.6079 8.567C67.3349 7.488 66.3469 6.409 64.6049 6.409C62.7459 6.409 61.2899 7.826 61.2899 9.802C61.2899 11.765 62.7719 13.195 64.6569 13.195C66.3599 13.195 67.3609 12.103 67.6469 11.037L66.1259 10.53C65.9829 11.024 65.5409 11.609 64.6569 11.609C63.7729 11.609 63.0189 10.959 63.0189 9.802C63.0189 8.645 63.7599 8.008 64.6439 8.008ZM72.8183 6.578C72.6883 6.565 72.5583 6.552 72.4153 6.552C71.8693 6.552 70.9853 6.708 70.5953 7.553V6.604H68.9183V13H70.6473V10.075C70.6473 8.697 71.4143 8.268 72.2983 8.268C72.4543 8.268 72.6233 8.281 72.8183 8.32V6.578ZM75.232 9.074C75.271 8.489 75.765 7.813 76.662 7.813C77.65 7.813 78.066 8.437 78.092 9.074H75.232ZM78.261 10.738C78.053 11.31 77.611 11.713 76.805 11.713C75.947 11.713 75.232 11.102 75.193 10.257H79.769C79.769 10.231 79.795 9.971 79.795 9.724C79.795 7.67 78.612 6.409 76.636 6.409C74.998 6.409 73.49 7.735 73.49 9.776C73.49 11.934 75.037 13.195 76.792 13.195C78.365 13.195 79.379 12.272 79.704 11.167L78.261 10.738ZM80.7666 11.258C80.7666 12.259 81.5986 13.182 82.9636 13.182C83.9126 13.182 84.5236 12.74 84.8486 12.233C84.8486 12.48 84.8746 12.831 84.9136 13H86.4996C86.4606 12.779 86.4216 12.324 86.4216 11.986V8.84C86.4216 7.553 85.6676 6.409 83.6396 6.409C81.9236 6.409 81.0006 7.514 80.8966 8.515L82.4306 8.84C82.4826 8.281 82.8986 7.8 83.6526 7.8C84.3806 7.8 84.7316 8.177 84.7316 8.632C84.7316 8.853 84.6146 9.035 84.2506 9.087L82.6776 9.321C81.6116 9.477 80.7666 10.114 80.7666 11.258ZM83.3276 11.895C82.7686 11.895 82.4956 11.531 82.4956 11.154C82.4956 10.66 82.8466 10.413 83.2886 10.348L84.7316 10.127V10.413C84.7316 11.544 84.0556 11.895 83.3276 11.895ZM90.2583 4.693H88.6983V5.59C88.6983 6.162 88.3863 6.604 87.7103 6.604H87.3853V8.138H88.5423V11.115C88.5423 12.35 89.3223 13.091 90.5703 13.091C91.0773 13.091 91.3893 13 91.5453 12.935V11.505C91.4543 11.531 91.2203 11.557 91.0123 11.557C90.5183 11.557 90.2583 11.375 90.2583 10.816V8.138H91.5453V6.604H90.2583V4.693ZM94.743 13V6.604H93.014V13H94.743ZM92.806 4.511C92.806 5.083 93.287 5.564 93.872 5.564C94.47 5.564 94.938 5.083 94.938 4.511C94.938 3.913 94.47 3.432 93.872 3.432C93.287 3.432 92.806 3.913 92.806 4.511ZM102.626 6.604H100.806L99.2851 10.894L97.6991 6.604H95.8011L98.4141 13H100.143L102.626 6.604ZM106.361 11.622C105.516 11.622 104.736 10.998 104.736 9.802C104.736 8.593 105.516 7.982 106.361 7.982C107.206 7.982 107.986 8.593 107.986 9.802C107.986 11.011 107.206 11.622 106.361 11.622ZM106.361 6.409C104.45 6.409 103.007 7.826 103.007 9.802C103.007 11.765 104.45 13.195 106.361 13.195C108.272 13.195 109.715 11.765 109.715 9.802C109.715 7.826 108.272 6.409 106.361 6.409ZM114.979 6.578C114.849 6.565 114.719 6.552 114.576 6.552C114.03 6.552 113.146 6.708 112.756 7.553V6.604H111.079V13H112.808V10.075C112.808 8.697 113.575 8.268 114.459 8.268C114.615 8.268 114.784 8.281 114.979 8.32V6.578ZM115.844 11.258C115.844 12.259 116.676 13.182 118.041 13.182C118.99 13.182 119.601 12.74 119.926 12.233C119.926 12.48 119.952 12.831 119.991 13H121.577C121.538 12.779 121.499 12.324 121.499 11.986V8.84C121.499 7.553 120.745 6.409 118.717 6.409C117.001 6.409 116.078 7.514 115.974 8.515L117.508 8.84C117.56 8.281 117.976 7.8 118.73 7.8C119.458 7.8 119.809 8.177 119.809 8.632C119.809 8.853 119.692 9.035 119.328 9.087L117.755 9.321C116.689 9.477 115.844 10.114 115.844 11.258ZM118.405 11.895C117.846 11.895 117.573 11.531 117.573 11.154C117.573 10.66 117.924 10.413 118.366 10.348L119.809 10.127V10.413C119.809 11.544 119.133 11.895 118.405 11.895ZM34.929 21.98C34.721 20.94 33.863 19.588 31.627 19.588C29.885 19.588 28.416 20.836 28.416 22.474C28.416 23.865 29.365 24.814 30.834 25.113L32.121 25.373C32.836 25.516 33.239 25.932 33.239 26.465C33.239 27.115 32.706 27.596 31.744 27.596C30.444 27.596 29.807 26.777 29.729 25.867L28.065 26.309C28.208 27.622 29.287 29.195 31.731 29.195C33.876 29.195 35.059 27.765 35.059 26.348C35.059 25.048 34.162 23.956 32.485 23.631L31.198 23.384C30.522 23.254 30.197 22.851 30.197 22.344C30.197 21.733 30.769 21.174 31.64 21.174C32.81 21.174 33.226 21.967 33.317 22.474L34.929 21.98ZM38.6392 20.693H37.0792V21.59C37.0792 22.162 36.7672 22.604 36.0912 22.604H35.7662V24.138H36.9232V27.115C36.9232 28.35 37.7032 29.091 38.9512 29.091C39.4582 29.091 39.7702 29 39.9262 28.935V27.505C39.8352 27.531 39.6012 27.557 39.3932 27.557C38.8992 27.557 38.6392 27.375 38.6392 26.816V24.138H39.9262V22.604H38.6392V20.693ZM44.2044 27.622C43.3594 27.622 42.5794 26.998 42.5794 25.802C42.5794 24.593 43.3594 23.982 44.2044 23.982C45.0494 23.982 45.8294 24.593 45.8294 25.802C45.8294 27.011 45.0494 27.622 44.2044 27.622ZM44.2044 22.409C42.2934 22.409 40.8504 23.826 40.8504 25.802C40.8504 27.765 42.2934 29.195 44.2044 29.195C46.1154 29.195 47.5584 27.765 47.5584 25.802C47.5584 23.826 46.1154 22.409 44.2044 22.409ZM52.8232 22.578C52.6932 22.565 52.5632 22.552 52.4202 22.552C51.8742 22.552 50.9902 22.708 50.6002 23.553V22.604H48.9232V29H50.6522V26.075C50.6522 24.697 51.4192 24.268 52.3032 24.268C52.4592 24.268 52.6282 24.281 52.8232 24.32V22.578ZM55.2369 25.074C55.2759 24.489 55.7699 23.813 56.6669 23.813C57.6549 23.813 58.0709 24.437 58.0969 25.074H55.2369ZM58.2659 26.738C58.0579 27.31 57.6159 27.713 56.8099 27.713C55.9519 27.713 55.2369 27.102 55.1979 26.257H59.7739C59.7739 26.231 59.7999 25.971 59.7999 25.724C59.7999 23.67 58.6169 22.409 56.6409 22.409C55.0029 22.409 53.4949 23.735 53.4949 25.776C53.4949 27.934 55.0419 29.195 56.7969 29.195C58.3699 29.195 59.3839 28.272 59.7089 27.167L58.2659 26.738Z" fill="#111111"/>
<defs>
<clipPath id="clip0">
<rect width="19.9875" height="25.3687" fill="white" transform="translate(0 3.84375)"/>
</clipPath>
</defs>
</svg>
