<svg width="42" height="42" viewBox="0 0 42 42" fill="none" xmlns="http://www.w3.org/2000/svg">
<path d="M35.8493 27.1507C33.562 24.8635 30.8396 23.1703 27.8692 22.1453C31.0506 19.9542 33.1406 16.2871 33.1406 12.1406C33.1406 5.4463 27.6943 0 21 0C14.3057 0 8.85938 5.4463 8.85938 12.1406C8.85938 16.2871 10.9494 19.9542 14.1309 22.1453C11.1605 23.1703 8.43806 24.8635 6.15079 27.1507C2.18441 31.1172 0 36.3907 0 42H3.28125C3.28125 32.2298 11.2298 24.2812 21 24.2812C30.7702 24.2812 38.7188 32.2298 38.7188 42H42C42 36.3907 39.8156 31.1172 35.8493 27.1507ZM21 21C16.115 21 12.1406 17.0257 12.1406 12.1406C12.1406 7.2555 16.115 3.28125 21 3.28125C25.885 3.28125 29.8594 7.2555 29.8594 12.1406C29.8594 17.0257 25.885 21 21 21Z" fill="#111111"/>
</svg>
